<svg width="14" height="14" viewBox="0 0 14 14" fill="none" xmlns="http://www.w3.org/2000/svg">
<path d="M5.16609 5.16618H5.1722M8.83371 8.8338H8.83982M9.44497 4.55491L4.55482 9.44507M5.47173 5.16618C5.47173 5.33498 5.33489 5.47182 5.16609 5.47182C4.99729 5.47182 4.86046 5.33498 4.86046 5.16618C4.86046 4.99739 4.99729 4.86055 5.16609 4.86055C5.33489 4.86055 5.47173 4.99739 5.47173 5.16618ZM9.13934 8.8338C9.13934 9.00259 9.0025 9.13943 8.83371 9.13943C8.66491 9.13943 8.52807 9.00259 8.52807 8.8338C8.52807 8.665 8.66491 8.52816 8.83371 8.52816C9.0025 8.52816 9.13934 8.665 9.13934 8.8338ZM13.1126 6.99999C13.1126 10.3759 10.3758 13.1127 6.9999 13.1127C3.62395 13.1127 0.887207 10.3759 0.887207 6.99999C0.887207 3.62404 3.62395 0.887299 6.9999 0.887299C10.3758 0.887299 13.1126 3.62404 13.1126 6.99999Z" stroke="#009A49" stroke-linecap="round" stroke-linejoin="round"/>
</svg>
